<?xml version="1.0" standalone="no"?>
<!DOCTYPE svg PUBLIC "-//W3C//DTD SVG 20010904//EN"
 "http://www.w3.org/TR/2001/REC-SVG-20010904/DTD/svg10.dtd">
<svg version="1.0" xmlns="http://www.w3.org/2000/svg"
 width="2048.000000pt" height="2048.000000pt" viewBox="0 0 2048.000000 2048.000000"
 preserveAspectRatio="xMidYMid meet">

<g transform="translate(0.000000,2048.000000) scale(0.100000,-0.100000)"
fill="#000000" stroke="none">
<path d="M7080 17440 c-1200 -5 -1247 -6 -1290 -24 -105 -45 -200 -131 -244
-222 -53 -107 -56 -145 -56 -696 l0 -508 4690 0 4690 0 0 526 c0 497 -1 531
-20 594 -23 78 -81 171 -136 219 -49 43 -164 97 -229 107 -56 9 -5478 12
-7405 4z"/>
<path d="M4334 15430 c-193 -28 -337 -144 -406 -326 l-23 -59 -3 -1473 c-2
-1296 -1 -1480 13 -1539 40 -171 169 -309 345 -369 l72 -24 5832 0 c5779 0
5834 0 5910 20 183 46 307 162 363 337 l23 75 -2 1481 -3 1482 -24 64 c-51
137 -162 254 -285 300 -30 11 -92 25 -138 31 -97 12 -11591 12 -11674 0z"/>
<path d="M5790 10669 c-895 -5 -1023 -7 -1080 -22 -414 -104 -700 -393 -792
-801 -21 -91 -21 -98 -19 -2976 2 -3172 -2 -2979 62 -3154 73 -202 211 -382
378 -495 133 -91 320 -160 484 -181 116 -14 10562 -14 10693 1 484 54 828 366
930 844 15 74 17 292 17 2980 l0 2900 -31 120 c-89 344 -315 603 -630 721
-186 70 221 64 -4622 67 -2406 1 -4832 -1 -5390 -4z m4841 -1308 c106 -12 167
-40 230 -108 26 -28 56 -75 70 -109 l24 -59 2 -1420 c2 -1054 6 -1426 14
-1442 17 -31 71 -48 101 -32 13 7 86 74 163 149 389 379 442 427 495 453 148
72 304 53 414 -51 134 -128 156 -338 48 -480 -42 -57 -1045 -1039 -1709 -1676
-137 -131 -193 -159 -313 -158 -50 1 -78 8 -127 32 -66 33 -60 27 -807 754
-182 177 -429 418 -550 536 -471 458 -524 512 -552 574 -84 183 -2 396 186
485 70 32 187 36 268 8 73 -26 119 -65 435 -370 267 -258 280 -269 310 -263
18 3 42 17 55 32 l22 25 0 1402 c0 1513 -1 1467 53 1560 57 97 145 148 277
157 134 11 796 11 891 1z"/>
</g>
</svg>
